<?xml version="1.0" encoding="UTF-8"?>
<svg xmlns="http://www.w3.org/2000/svg" width="1068" height="1068" viewBox="0 0 1068 1064" fill="none" version="1.2" baseProfile="tiny-ps">
  <rect width="1068" height="1064" fill="white"/>
  <g clip-path="url(#clip0_7059_94)">
    <rect x="200" y="200" width="454" height="664" fill="#1A1F05"/>
    <circle cx="647.5" cy="355.5" r="157.5" fill="#1A1F05"/>
    <circle cx="676.5" cy="674.5" r="191.5" fill="#1A1F05"/>
    <path d="M436.796 269.249C442.761 268.803 449.795 269.091 455.815 269.095L488.933 269.117L519.136 269.078C527.385 269.069 536.537 268.591 544.538 270.289C555.58 272.584 565.789 277.84 574.071 285.496C585.719 296.597 592.476 311.873 592.854 327.959C593.322 344.084 587.385 359.739 576.34 371.497C566.465 381.793 553.211 388.186 539.005 389.506C531.986 390.168 524.641 389.62 517.596 389.88C487.917 390.974 460.671 384.048 437.888 408.084C427.209 419.321 421.535 434.404 422.16 449.893C422.608 461.946 426.792 473.561 434.132 483.131C443.481 495.328 457.369 502.681 472.519 504.768C478.102 505.537 484.402 505.331 490.087 505.3L512.182 505.187C516.934 505.171 524.413 505.007 528.987 505.682C542.658 507.805 556.523 513.318 568.691 519.658C584.101 527.688 597.408 537.954 606.239 553.109C609.292 558.348 613.049 563.849 616.299 569.123L643.18 612.064C653.443 628.517 663.386 647.198 677.629 660.194C693.052 674.267 710.201 683.359 731.613 682.504C749.503 681.659 766.316 673.714 778.33 660.431C792.971 644.383 795.733 626.518 794.853 605.741C806.683 607.996 809.167 623.281 810.64 633.285C814.319 658.277 804.451 681.677 789.186 701.059C769.255 726.249 740.097 742.445 708.179 746.054C684.357 748.867 657.308 743.937 636.563 731.191C634.229 729.757 629.156 725.284 626.811 723.331C620.735 718.194 614.584 713.146 608.36 708.188C608.732 713.949 608.555 720.037 608.826 725.921C609.328 759.759 608.594 793.761 608.85 827.616C608.941 839.662 608.93 851.89 608.73 863.939L526.688 864.01C520.51 847.586 532.677 823.629 549.436 817.605C562.274 812.99 559.228 784.782 559.263 774.359L559.32 759.637C559.347 748.364 558.547 738.881 546.751 733.354C534.82 727.764 525.401 717.857 519.668 706.014C518.095 702.765 517.013 699.512 515.284 696.329C514.342 702.413 514.016 709.948 513.548 716.201C512.885 724.553 512.147 732.898 511.335 741.237C510.841 746.376 509.703 751.149 509.067 756.216C506.506 776.627 504.736 796.382 504.199 816.884C503.868 829.475 497.242 852.561 492.243 864.128C484.462 864.004 476.084 864.226 468.223 864.239L413.249 864.31C413.233 851.155 412.857 843.426 420.05 831.756C425.103 822.005 435.384 821.652 442.587 814.64C449.544 807.869 448.427 798.579 448.417 789.85L448.397 769.591C448.39 748.213 448.788 725.457 448.289 704.183C440.758 702.804 433.378 702.532 425.827 700.535C368.921 685.48 324.806 638.014 322.262 577.902C321.775 566.407 322.043 555.09 322.05 543.745L322.072 483.931L322.076 424.409C322.069 404.715 321.064 384.37 325.445 365.156C330.199 344.431 340.068 325.226 354.15 309.294C375.227 285.42 404.997 270.995 436.796 269.249Z" fill="#D3E97A"/>
    <path d="M473.285 294.701C483.94 294.768 492.547 303.417 492.561 314.072C492.574 324.728 483.99 333.399 473.335 333.493C462.566 333.587 453.781 324.891 453.768 314.122C453.754 303.353 462.516 294.634 473.285 294.701Z" fill="#1A1F05"/>
    <path d="M343.645 671.771C346.015 674.744 348.744 679.849 351.59 683.425C365.926 701.443 378.324 709.778 398.347 719.776C397.914 730.34 398.598 741.211 398.106 751.769C396.983 775.847 398.067 801.866 395.401 825.706C394.305 835.508 386.645 855.5 382.395 864.376C375.345 864.141 366.922 864.363 359.773 864.369L306.023 864.422C303.067 845.77 305.831 831.031 323.467 821.128C327.3 819.232 331.111 818.876 334.193 815.653C343.897 805.507 343.519 794.565 343.523 781.562L343.525 758.924C343.521 730.059 343.254 700.598 343.645 671.771Z" fill="#D3E97A"/>
  </g>
  <defs>
    <clipPath id="clip0_7059_94">
      <rect width="668" height="664" fill="white" transform="translate(200 200)"/>
    </clipPath>
  </defs>
<title>Title</title></svg>
